<?xml version="1.0" encoding="UTF-8" standalone="no"?>
<svg xmlns="http://www.w3.org/2000/svg" viewBox="0 0 128 128" width="128" height="128">
    <!-- Background Grid -->
    <rect width="128" height="128" fill="#000"/>
    
    <!-- Electrical Grid Scheme with More Complexity -->
    <path d="M32 32 H96 V96 H32 Z" stroke="#00ffcc" stroke-width="3" fill="none"/>
    <path d="M64 32 V96" stroke="#00ffcc" stroke-width="2.5" stroke-dasharray="3,2"/>
    <path d="M32 64 H96" stroke="#00ffcc" stroke-width="2.5" stroke-dasharray="3,2"/>
    
    <!-- Additional Circuit Lines -->
    <path d="M40 40 H88 V88 H40 Z" stroke="#6600ff" stroke-width="2" fill="none" stroke-dasharray="5,3"/>
    <path d="M48 48 H80 V80 H48 Z" stroke="#ff6600" stroke-width="1.5" fill="none" stroke-dasharray="4,2"/>
    <path d="M56 56 H72 V72 H56 Z" stroke="#00ff00" stroke-width="1.5" fill="none" stroke-dasharray="3,2"/>
    
    <!-- Cyan Pixelated Firewall -->
    <rect x="20" y="20" width="88" height="88" fill="none" stroke="#00ffcc" stroke-width="4" stroke-dasharray="4,2"/>
    
    <!-- Datacore with More Detail -->
    <circle cx="64" cy="64" r="12" fill="#ff0066" stroke="#ff0000" stroke-width="3"/>
    <circle cx="64" cy="64" r="6" fill="#ff0000" stroke="#ff6600" stroke-width="2"/>
    
    <!-- Connections from Datacore -->
    <line x1="64" y1="48" x2="64" y2="32" stroke="#ff0066" stroke-width="3" stroke-dasharray="4,2"/>
    <line x1="64" y1="80" x2="64" y2="96" stroke="#ff6600" stroke-width="3" stroke-dasharray="4,2"/>
    <line x1="48" y1="64" x2="32" y2="64" stroke="#00ffcc" stroke-width="3" stroke-dasharray="4,2"/>
    <line x1="80" y1="64" x2="96" y2="64" stroke="#6600ff" stroke-width="3" stroke-dasharray="4,2"/>
    
    <!-- Additional Circuitry for Cyberpunk Feel -->
    <path d="M16 16 L32 32" stroke="#00ffcc" stroke-width="2" stroke-dasharray="2,2"/>
    <path d="M112 16 L96 32" stroke="#ff6600" stroke-width="2" stroke-dasharray="2,2"/>
    <path d="M16 112 L32 96" stroke="#6600ff" stroke-width="2" stroke-dasharray="2,2"/>
    <path d="M112 112 L96 96" stroke="#00ff00" stroke-width="2" stroke-dasharray="2,2"/>
</svg>
